<mxfile host="app.diagrams.net" modified="2022-09-21T15:19:42.344Z" agent="5.0 (Windows)" etag="r3zR3-NMqoGkrQNuWyTK" version="20.3.3" type="github">
  <diagram id="CslgPmcmwdVkwZHx8b5c" name="Page-1">
    <mxGraphModel dx="1422" dy="780" grid="1" gridSize="10" guides="1" tooltips="1" connect="1" arrows="1" fold="1" page="1" pageScale="1" pageWidth="850" pageHeight="1100" math="0" shadow="0">
      <root>
        <mxCell id="0" />
        <mxCell id="1" parent="0" />
        <mxCell id="hbxsilxib6MLBgu_tOjK-1" value="C:Client" style="rounded=1;whiteSpace=wrap;html=1;" vertex="1" parent="1">
          <mxGeometry x="100" y="120" width="100" height="40" as="geometry" />
        </mxCell>
        <mxCell id="hbxsilxib6MLBgu_tOjK-2" value="S:Corporate Web server" style="rounded=1;whiteSpace=wrap;html=1;" vertex="1" parent="1">
          <mxGeometry x="520" y="120" width="145" height="40" as="geometry" />
        </mxCell>
        <mxCell id="hbxsilxib6MLBgu_tOjK-3" value="D:Time Clock Database" style="rounded=1;whiteSpace=wrap;html=1;" vertex="1" parent="1">
          <mxGeometry x="1090" y="120" width="140" height="40" as="geometry" />
        </mxCell>
        <mxCell id="hbxsilxib6MLBgu_tOjK-4" value="" style="endArrow=none;html=1;rounded=0;entryX=0.5;entryY=1;entryDx=0;entryDy=0;" edge="1" parent="1" target="hbxsilxib6MLBgu_tOjK-1">
          <mxGeometry width="50" height="50" relative="1" as="geometry">
            <mxPoint x="150" y="600" as="sourcePoint" />
            <mxPoint x="450" y="370" as="targetPoint" />
          </mxGeometry>
        </mxCell>
        <mxCell id="hbxsilxib6MLBgu_tOjK-5" value="" style="endArrow=none;html=1;rounded=0;entryX=0.5;entryY=1;entryDx=0;entryDy=0;" edge="1" parent="1" target="hbxsilxib6MLBgu_tOjK-2">
          <mxGeometry width="50" height="50" relative="1" as="geometry">
            <mxPoint x="593" y="600" as="sourcePoint" />
            <mxPoint x="610" y="200" as="targetPoint" />
          </mxGeometry>
        </mxCell>
        <mxCell id="hbxsilxib6MLBgu_tOjK-6" value="" style="endArrow=none;html=1;rounded=0;entryX=0.5;entryY=1;entryDx=0;entryDy=0;" edge="1" parent="1" target="hbxsilxib6MLBgu_tOjK-3">
          <mxGeometry width="50" height="50" relative="1" as="geometry">
            <mxPoint x="1160" y="600" as="sourcePoint" />
            <mxPoint x="1190" y="230" as="targetPoint" />
          </mxGeometry>
        </mxCell>
        <mxCell id="hbxsilxib6MLBgu_tOjK-7" value="" style="endArrow=classic;html=1;rounded=0;" edge="1" parent="1">
          <mxGeometry width="50" height="50" relative="1" as="geometry">
            <mxPoint x="150" y="180" as="sourcePoint" />
            <mxPoint x="590" y="180" as="targetPoint" />
          </mxGeometry>
        </mxCell>
        <mxCell id="hbxsilxib6MLBgu_tOjK-9" value="EmployeeClockIn(employeeRecord e, time t1)" style="text;align=center;fontStyle=1;verticalAlign=middle;spacingLeft=3;spacingRight=3;strokeColor=none;rotatable=0;points=[[0,0.5],[1,0.5]];portConstraint=eastwest;" vertex="1" parent="1">
          <mxGeometry x="320" y="150" width="90" height="26" as="geometry" />
        </mxCell>
        <mxCell id="hbxsilxib6MLBgu_tOjK-10" value="" style="endArrow=classic;html=1;rounded=0;" edge="1" parent="1">
          <mxGeometry width="50" height="50" relative="1" as="geometry">
            <mxPoint x="150" y="250" as="sourcePoint" />
            <mxPoint x="595" y="250" as="targetPoint" />
            <Array as="points">
              <mxPoint x="355" y="250" />
            </Array>
          </mxGeometry>
        </mxCell>
        <mxCell id="hbxsilxib6MLBgu_tOjK-12" value="EmployeeClockOut(employeeRecord e, time t2)" style="text;align=center;fontStyle=1;verticalAlign=middle;spacingLeft=3;spacingRight=3;strokeColor=none;rotatable=0;points=[[0,0.5],[1,0.5]];portConstraint=eastwest;" vertex="1" parent="1">
          <mxGeometry x="325" y="220" width="80" height="26" as="geometry" />
        </mxCell>
        <mxCell id="hbxsilxib6MLBgu_tOjK-13" value="" style="endArrow=classic;html=1;rounded=0;" edge="1" parent="1">
          <mxGeometry width="50" height="50" relative="1" as="geometry">
            <mxPoint x="590" y="320" as="sourcePoint" />
            <mxPoint x="1160" y="320" as="targetPoint" />
          </mxGeometry>
        </mxCell>
        <mxCell id="hbxsilxib6MLBgu_tOjK-14" value="CreateEmployeeTimeRecord(employeeID e, date d, time t1, time t2, time elapsedTime)" style="text;align=center;fontStyle=1;verticalAlign=middle;spacingLeft=3;spacingRight=3;strokeColor=none;rotatable=0;points=[[0,0.5],[1,0.5]];portConstraint=eastwest;" vertex="1" parent="1">
          <mxGeometry x="830" y="280" width="100" height="36" as="geometry" />
        </mxCell>
        <mxCell id="hbxsilxib6MLBgu_tOjK-15" value="" style="endArrow=classic;html=1;rounded=0;" edge="1" parent="1">
          <mxGeometry width="50" height="50" relative="1" as="geometry">
            <mxPoint x="1160" y="360" as="sourcePoint" />
            <mxPoint x="590" y="360" as="targetPoint" />
          </mxGeometry>
        </mxCell>
        <mxCell id="hbxsilxib6MLBgu_tOjK-16" value="return(sucess code s)" style="text;align=center;fontStyle=1;verticalAlign=middle;spacingLeft=3;spacingRight=3;strokeColor=none;rotatable=0;points=[[0,0.5],[1,0.5]];portConstraint=eastwest;" vertex="1" parent="1">
          <mxGeometry x="840" y="330" width="80" height="26" as="geometry" />
        </mxCell>
        <mxCell id="hbxsilxib6MLBgu_tOjK-17" value="" style="endArrow=classic;html=1;rounded=0;" edge="1" parent="1">
          <mxGeometry width="50" height="50" relative="1" as="geometry">
            <mxPoint x="590" y="390" as="sourcePoint" />
            <mxPoint x="150" y="390" as="targetPoint" />
          </mxGeometry>
        </mxCell>
        <mxCell id="hbxsilxib6MLBgu_tOjK-18" value="return(sucess code s)" style="text;align=center;fontStyle=1;verticalAlign=middle;spacingLeft=3;spacingRight=3;strokeColor=none;rotatable=0;points=[[0,0.5],[1,0.5]];portConstraint=eastwest;" vertex="1" parent="1">
          <mxGeometry x="325" y="356" width="80" height="26" as="geometry" />
        </mxCell>
        <mxCell id="hbxsilxib6MLBgu_tOjK-19" value="" style="endArrow=classic;html=1;rounded=0;" edge="1" parent="1">
          <mxGeometry width="50" height="50" relative="1" as="geometry">
            <mxPoint x="595" y="210" as="sourcePoint" />
            <mxPoint x="150" y="214" as="targetPoint" />
          </mxGeometry>
        </mxCell>
        <mxCell id="hbxsilxib6MLBgu_tOjK-20" value="return(sucess code s)" style="text;align=center;fontStyle=1;verticalAlign=middle;spacingLeft=3;spacingRight=3;strokeColor=none;rotatable=0;points=[[0,0.5],[1,0.5]];portConstraint=eastwest;" vertex="1" parent="1">
          <mxGeometry x="325" y="180" width="80" height="26" as="geometry" />
        </mxCell>
        <mxCell id="hbxsilxib6MLBgu_tOjK-23" value="" style="endArrow=classic;html=1;rounded=0;" edge="1" parent="1">
          <mxGeometry width="50" height="50" relative="1" as="geometry">
            <mxPoint x="590" y="294" as="sourcePoint" />
            <mxPoint x="150" y="294" as="targetPoint" />
          </mxGeometry>
        </mxCell>
        <mxCell id="hbxsilxib6MLBgu_tOjK-24" value="return(sucess code s)" style="text;align=center;fontStyle=1;verticalAlign=middle;spacingLeft=3;spacingRight=3;strokeColor=none;rotatable=0;points=[[0,0.5],[1,0.5]];portConstraint=eastwest;" vertex="1" parent="1">
          <mxGeometry x="325" y="260" width="80" height="26" as="geometry" />
        </mxCell>
      </root>
    </mxGraphModel>
  </diagram>
</mxfile>
